<svg width="512" height="512" viewBox="0 0 512 512" fill="none" xmlns="http://www.w3.org/2000/svg">
<path d="M400 0H112C50.1441 0 0 50.1441 0 112V400C0 461.856 50.1441 512 112 512H400C461.856 512 512 461.856 512 400V112C512 50.1441 461.856 0 400 0Z" fill="white"/>
<path d="M68.756 309L105.855 214.041H46.0734V202.315H120.657V214.81L83.5573 309H68.756ZM46.0734 214.041V171.175H59.9136V214.041H46.0734ZM173.247 309L171.709 297.274C176.066 296.762 180.167 295.865 184.011 294.583C187.984 293.174 191.508 290.995 194.584 288.048C197.659 284.972 200.158 280.743 202.08 275.361C204.131 269.85 205.476 262.866 206.117 254.408L209.385 214.041H140.184V202.315H225.147L224.571 212.888L221.495 251.525C220.982 261.008 219.445 269.338 216.882 276.514C214.447 283.562 211.115 289.457 206.886 294.199C202.785 298.94 197.851 302.528 192.085 304.963C186.446 307.398 180.167 308.744 173.247 309ZM140.568 347.445V254.408L142.683 241.337H155.37V254.216V347.445H140.568ZM257.792 310.922L244.337 202.315H258.561L270.095 297.851C280.09 297.21 288.869 295.416 296.43 292.469C304.119 289.521 310.526 285.292 315.652 279.782C320.778 274.271 324.623 267.415 327.186 259.214C329.749 251.012 330.966 241.401 330.838 230.38L330.646 202.315H345.447L345.639 229.803C345.767 248.001 342.563 263.058 336.028 274.976C329.62 286.894 319.881 295.865 306.81 301.888C293.738 307.783 277.399 310.794 257.792 310.922ZM263.751 269.402L260.291 259.022C267.211 255.818 272.658 252.422 276.63 248.834C280.603 245.245 283.486 240.696 285.281 235.186C287.075 229.675 288.036 222.627 288.164 214.041L288.356 202.7H302.581L302.389 213.849C302.26 223.46 300.915 231.726 298.352 238.646C295.789 245.566 291.688 251.461 286.049 256.33C280.539 261.2 273.106 265.557 263.751 269.402ZM402.515 309.384L404.053 297.659C414.689 299.965 423.275 299.709 429.811 296.89C436.347 294.071 441.088 288.88 444.036 281.32C447.111 273.759 448.521 264.019 448.265 252.101C448.136 242.234 446.791 234.481 444.228 228.842C441.793 223.204 438.525 219.231 434.424 216.924C430.452 214.49 425.902 213.272 420.776 213.272C415.522 213.272 411.101 214.425 407.513 216.732C404.053 218.911 401.298 221.794 399.247 225.382C397.197 228.97 395.723 232.879 394.826 237.108L390.405 229.035C392.712 219.295 396.876 212.247 402.9 207.89C409.051 203.405 415.715 201.162 422.891 201.162C428.401 201.162 433.463 202.059 438.077 203.853C442.818 205.519 446.983 208.338 450.571 212.311C454.159 216.284 456.979 221.538 459.029 228.073C461.208 234.609 462.361 242.618 462.489 252.101C462.874 266.839 460.759 278.949 456.146 288.432C451.532 297.915 444.676 304.515 435.578 308.231C426.607 311.819 415.586 312.204 402.515 309.384ZM366.954 309L381.178 234.225L366.377 202.315H381.755L395.403 234.801L381.755 309H366.954Z" fill="url(#paint0_linear_1_28)"/>
<defs>
<linearGradient id="paint0_linear_1_28" x1="214.238" y1="478.058" x2="294.806" y2="-353.313" gradientUnits="userSpaceOnUse">
<stop stop-color="#0487FF"/>
<stop offset="1" stop-color="#9DD0FF"/>
</linearGradient>
</defs>
</svg>
